<svg xmlns="http://www.w3.org/2000/svg" xmlns:xlink="http://www.w3.org/1999/xlink" version="1.1" x="0px" y="0px" viewBox="0 0 100 100" style="enable-background:new 0 0 100 100;" xml:space="preserve"><g><path d="M62.3,47.8c-11.7,0-21.1,9.5-21.1,21.1S50.7,90,62.3,90s21.1-9.5,21.1-21.1S74,47.8,62.3,47.8z M49.9,56.5   c3.3-3.3,7.7-5.2,12.4-5.2s9.1,1.8,12.4,5.2c1.1,1.1,2.1,2.4,2.9,3.8L68,64.7c-1.3-1.7-3.3-2.9-5.7-2.9c-2.3,0-4.4,1.1-5.7,2.9   L47,60.2C47.8,58.9,48.7,57.6,49.9,56.5z M59.4,86.2c-3.6-0.6-6.9-2.3-9.5-4.9c-3.3-3.3-5.2-7.7-5.2-12.4c0-1.1,0.1-2.2,0.3-3.2   l10.3,2.8c0,0.1,0,0.3,0,0.4c0,3.2,2.1,5.9,5.1,6.8L59.4,86.2z M58.8,68.9c0-1.9,1.6-3.5,3.5-3.5c1.9,0,3.5,1.6,3.5,3.5   s-1.6,3.5-3.5,3.5C60.4,72.4,58.8,70.8,58.8,68.9z M74.8,81.3c-2.6,2.6-5.9,4.3-9.5,4.9l-0.9-10.6c2.9-0.9,5.1-3.6,5.1-6.8   c0-0.2,0-0.3,0-0.4l10.3-2.8c0.2,1,0.3,2.1,0.3,3.2C79.9,73.6,78.1,78,74.8,81.3z"></path><circle cx="41.2" cy="24.4" r="14.4"></circle><path d="M61.9,46.4c-2.4-3.9-5.8-7.1-9.8-9.1c-2.9,2.5-6.7,4-10.8,4c-4.1,0-7.9-1.5-10.8-3.9c-7.9,4.1-13.4,12.3-13.8,22   c0,0,0,8.1,0,8.2c0,3.3,10.6,6,23.7,6.1c-0.3-1.5-0.5-3.1-0.5-4.7C39.8,56.6,49.7,46.6,61.9,46.4z"></path></g></svg>