<svg xmlns="http://www.w3.org/2000/svg" xmlns:xlink="http://www.w3.org/1999/xlink" version="1.1" x="0px" y="0px" viewBox="0 0 24 24" style="enable-background:new 0 0 24 24;" xml:space="preserve"><g><path d="M19.656,2.19c0.208,0,0.379-0.169,0.379-0.379V0.818c0-0.209-0.169-0.378-0.379-0.378s-0.378,0.169-0.378,0.378v0.994   C19.278,2.02,19.447,2.19,19.656,2.19z"></path><path d="M21.072,2.776c0.097,0,0.194-0.037,0.267-0.111l0.703-0.703c0.148-0.147,0.148-0.387,0-0.535   c-0.148-0.148-0.387-0.148-0.535,0l-0.703,0.703c-0.148,0.147-0.148,0.387,0,0.535C20.878,2.739,20.974,2.776,21.072,2.776z"></path><path d="M17.972,2.666c0.074,0.074,0.17,0.111,0.268,0.111c0.097,0,0.194-0.037,0.268-0.111c0.148-0.148,0.148-0.387,0-0.535   l-0.703-0.703c-0.148-0.148-0.387-0.148-0.535,0c-0.148,0.148-0.148,0.387,0,0.535L17.972,2.666z"></path><g><path d="M18.377,22.998c-0.566-0.815-0.566-4.769,0-5.584c0.024-0.035,0.039-0.073,0.047-0.112    c0.028-0.045,0.048-0.095,0.048-0.152c0-0.165-0.134-0.299-0.299-0.299h-1.255h-0.115h-1.255c-0.165,0-0.299,0.134-0.299,0.299    c0,0.057,0.02,0.107,0.048,0.152c0.008,0.039,0.023,0.077,0.047,0.112c0.566,0.815,0.566,4.769,0,5.584    c-0.024,0.035-0.039,0.073-0.047,0.112c-0.028,0.045-0.048,0.095-0.048,0.152c0,0.165,0.134,0.299,0.299,0.299h1.255h0.115h1.255    c0.165,0,0.299-0.134,0.299-0.299c0-0.057-0.02-0.107-0.048-0.152C18.416,23.071,18.401,23.033,18.377,22.998z"></path><path d="M21.731,12.196c0.006-0.073,0.024-0.143,0.024-0.217c0-1.16-0.838-2.146-1.95-2.373c-0.22-0.99-1.093-1.686-2.187-1.686    c-0.945,0-1.736,0.531-2.07,1.332c-0.313-0.129-0.648-0.201-0.993-0.201c-1.435,0-2.603,1.168-2.603,2.603    c0,0.241,0.034,0.46,0.1,0.689c-0.638,0.432-1.038,1.129-1.038,1.915c0,1.109,0.789,2.072,1.946,2.297h7.741    c1.266,0,2.297-1.031,2.299-2.297C23,13.329,22.51,12.551,21.731,12.196z"></path><path d="M7.206,22.998c-0.566-0.815-0.566-4.769,0-5.584c0.024-0.035,0.039-0.073,0.047-0.112C7.28,17.257,7.3,17.207,7.3,17.15    c0-0.165-0.134-0.299-0.299-0.299H5.746H5.631H4.376c-0.165,0-0.299,0.134-0.299,0.299c0,0.057,0.02,0.107,0.048,0.152    c0.008,0.039,0.023,0.077,0.047,0.112c0.566,0.815,0.566,4.769,0,5.584c-0.024,0.035-0.039,0.073-0.047,0.112    c-0.028,0.045-0.048,0.095-0.048,0.152c0,0.165,0.134,0.299,0.299,0.299h1.255h0.115h1.255c0.165,0,0.299-0.134,0.299-0.299    c0-0.057-0.02-0.107-0.048-0.152C7.245,23.071,7.23,23.033,7.206,22.998z"></path><path d="M9.075,7.638c0.118,0,0.234-0.054,0.308-0.156l2.917-4.024l2.917,4.024c0.074,0.102,0.189,0.156,0.307,0.156    c0.077,0,0.155-0.024,0.221-0.073C15.846,7.492,15.9,7.376,15.9,7.259c0-0.077-0.023-0.154-0.072-0.221l-3.223-4.446    c-0.017-0.023-0.04-0.038-0.061-0.057c-0.009-0.008-0.013-0.02-0.023-0.027c-0.004-0.003-0.008-0.003-0.012-0.006    c-0.026-0.018-0.054-0.028-0.083-0.038c-0.018-0.006-0.034-0.016-0.053-0.019c-0.029-0.006-0.059-0.004-0.088-0.003    c-0.018,0.001-0.036-0.002-0.054,0.002c-0.027,0.005-0.052,0.018-0.079,0.029c-0.02,0.009-0.04,0.015-0.059,0.027    c-0.005,0.003-0.011,0.004-0.016,0.008c-0.013,0.009-0.018,0.024-0.03,0.035c-0.018,0.017-0.039,0.029-0.055,0.05L8.769,7.038    C8.72,7.105,8.697,7.183,8.697,7.26c0,0.117,0.054,0.233,0.156,0.307C8.919,7.616,8.998,7.638,9.075,7.638z"></path><path d="M19.656,5.223c0.786,0,1.425-0.64,1.426-1.426c0-0.785-0.64-1.425-1.426-1.425c-0.785,0-1.425,0.639-1.425,1.425    C18.231,4.584,18.87,5.223,19.656,5.223z"></path><path d="M19.278,5.817v0.995c0,0.209,0.169,0.378,0.378,0.378c0.208,0,0.379-0.17,0.379-0.378V5.817    c0-0.209-0.169-0.379-0.379-0.379S19.278,5.608,19.278,5.817z"></path><path d="M21.281,3.814c0,0.209,0.169,0.379,0.378,0.379h0.994c0.208,0,0.379-0.169,0.379-0.379c0-0.209-0.169-0.378-0.379-0.378    h-0.994C21.45,3.436,21.281,3.605,21.281,3.814z"></path><path d="M16.658,4.193h0.995c0.209,0,0.379-0.169,0.379-0.379c0-0.209-0.169-0.378-0.379-0.378h-0.995    c-0.209,0-0.379,0.169-0.379,0.378C16.28,4.024,16.449,4.193,16.658,4.193z"></path><path d="M17.972,4.963l-0.703,0.703c-0.148,0.148-0.148,0.387,0,0.535c0.074,0.074,0.17,0.111,0.268,0.111    c0.097,0,0.194-0.037,0.267-0.111l0.703-0.703c0.148-0.148,0.148-0.387,0-0.535C18.359,4.816,18.119,4.816,17.972,4.963z"></path><path d="M20.804,4.963c-0.148,0.148-0.148,0.387,0,0.535l0.703,0.703c0.074,0.074,0.17,0.111,0.268,0.111    c0.097,0,0.194-0.037,0.267-0.111c0.148-0.148,0.148-0.387,0-0.535l-0.703-0.703C21.191,4.816,20.952,4.816,20.804,4.963z"></path><path d="M11.078,16.424c-0.019-0.059-0.051-0.112-0.095-0.155c-0.734-0.717-1.324-1.392-1.747-1.911    c0.662,0.176,1.05,0.122,1.255-0.147c0.12-0.156,0.128-0.342,0.095-0.464c-0.026-0.098-0.917-1.081-1.591-1.958    c0.002,0,0.011,0,0.017,0c0.388-0.016,0.587-0.183,0.685-0.321c0.195-0.274,0.117-0.58,0.1-0.638    c-0.034-0.116-0.975-1.152-1.598-2.016C8.245,8.811,8.316,8.803,8.34,8.797c0.383-0.101,0.509-0.315,0.547-0.475    c0.082-0.348-0.202-0.619-0.271-0.679c-0.3-0.243-0.753-0.949-1.07-1.49C7.67,6.089,7.744,6.003,7.785,5.94    c0.233-0.353,0.04-0.847-0.002-0.943C7.769,4.961,7.748,4.93,7.723,4.901c-1.269-1.469-1.692-3.281-1.696-3.3    C5.99,1.439,5.846,1.314,5.688,1.314C5.531,1.314,5.386,1.439,5.35,1.601c-0.004,0.019-0.426,1.831-1.696,3.3    c-0.025,0.029-0.046,0.06-0.06,0.096C3.552,5.093,3.359,5.587,3.592,5.94c0.041,0.063,0.115,0.15,0.239,0.213    C3.513,6.693,3.06,7.4,2.761,7.643C2.692,7.703,2.408,7.974,2.49,8.322c0.038,0.16,0.164,0.373,0.547,0.475    c0.024,0.007,0.095,0.014,0.141,0.018C2.555,9.678,1.614,10.714,1.58,10.83c-0.018,0.059-0.095,0.365,0.1,0.638    c0.098,0.138,0.297,0.305,0.685,0.321c0.006,0,0.015,0,0.017,0c-0.674,0.878-1.564,1.86-1.591,1.958    c-0.033,0.122-0.025,0.308,0.095,0.464c0.206,0.269,0.594,0.323,1.255,0.147c-0.422,0.518-1.013,1.194-1.747,1.911    c-0.044,0.043-0.076,0.096-0.095,0.155C0.26,16.55,0.26,16.744,0.381,16.908c0.201,0.275,0.589,0.337,1.246,0.182    c0.067-0.025,0.834-0.385,1.976-0.607l2.085,0.029l2.085-0.029c1.142,0.222,1.909,0.582,1.976,0.607    c0.657,0.154,1.045,0.092,1.246-0.182C11.117,16.744,11.117,16.55,11.078,16.424z"></path></g></g></svg>