<svg xmlns="http://www.w3.org/2000/svg" xmlns:xlink="http://www.w3.org/1999/xlink" version="1.1" x="0px" y="0px" viewBox="0 0 36 36" style="enable-background:new 0 0 36 36;" xml:space="preserve"><g><path d="M7,11h12.1c0.4,1.7,2,3,3.9,3s3.4-1.3,3.9-3H29c0.6,0,1-0.4,1-1s-0.4-1-1-1h-2.1c-0.4-1.7-2-3-3.9-3s-3.4,1.3-3.9,3H7   c-0.6,0-1,0.4-1,1S6.4,11,7,11z M23,8c1.1,0,2,0.9,2,2s-0.9,2-2,2s-2-0.9-2-2S21.9,8,23,8z"></path><path d="M29,17H16.9c-0.4-1.7-2-3-3.9-3s-3.4,1.3-3.9,3H7c-0.6,0-1,0.4-1,1s0.4,1,1,1h2.1c0.4,1.7,2,3,3.9,3s3.4-1.3,3.9-3H29   c0.6,0,1-0.4,1-1S29.6,17,29,17z M13,20c-1.1,0-2-0.9-2-2c0-1.1,0.9-2,2-2s2,0.9,2,2C15,19.1,14.1,20,13,20z"></path><path d="M29,25h-2.1c-0.4-1.7-2-3-3.9-3s-3.4,1.3-3.9,3H7c-0.6,0-1,0.4-1,1s0.4,1,1,1h12.1c0.4,1.7,2,3,3.9,3s3.4-1.3,3.9-3H29   c0.6,0,1-0.4,1-1S29.6,25,29,25z M23,28c-1.1,0-2-0.9-2-2s0.9-2,2-2s2,0.9,2,2S24.1,28,23,28z"></path></g></svg>