<svg xmlns="http://www.w3.org/2000/svg" xmlns:xlink="http://www.w3.org/1999/xlink" version="1.1" x="0px" y="0px" viewBox="0 0 100 100" enable-background="new 0 0 100 100" xml:space="preserve"><path d="M85.518,24.482c-0.469-0.469-1.104-0.732-1.768-0.732h-52.5c-0.597,0-1.174,0.213-1.627,0.602l-8.75,7.5  C20.319,32.327,20,33.02,20,33.75l0,10H7.5c-1.381,0-2.5,1.119-2.5,2.5v7.5c0,1.381,1.119,2.5,2.5,2.5H20v10  c0,0.729,0.319,1.423,0.873,1.898l8.75,7.5c0.453,0.388,1.03,0.602,1.627,0.602h52.5c0.663,0,1.299-0.264,1.768-0.732l8.75-8.75  C94.737,66.299,95,65.663,95,65V35c0-0.663-0.263-1.299-0.732-1.768L85.518,24.482z M63.75,43.75v5h-30v-5H63.75z M33.75,41.25V37.5  h30v3.75H33.75z M63.75,51.25v6.25h-30v-6.25H63.75z M63.75,60v2.5h-30V60H63.75z M63.75,35h-30v-2.5h30V35z M33.75,65h30v2.5h-30  V65z M63.75,30h-30v-1.25h30V30z M33.75,70h30v1.25h-30V70z M66.25,28.75h15v42.5h-15V28.75z M10,51.25v-2.5h12.5v2.5H10z   M25,65.101V53.75v-7.495c0-0.002,0-0.003,0-0.005l0-11.35l6.25-5.357v40.915L25,65.101z M90,63.965l-6.25,6.25V29.786l6.25,6.25  V63.965z"></path></svg>