<svg xmlns="http://www.w3.org/2000/svg" viewBox="0 0 64 64" x="0px" y="0px"><g><path d="M21,18a3,3,0,0,0-3,3V43a3,3,0,0,0,3,3H43a3,3,0,0,0,3-3V21a3,3,0,0,0-3-3ZM42,41a1,1,0,0,1-1,1H23a1,1,0,0,1-1-1V23a1,1,0,0,1,1-1H41a1,1,0,0,1,1,1Z"></path><path d="M24,40H40V24H24Zm6-14h8V38H36V28H30Zm-4,0h2V36h6v2H26Z"></path><path d="M43,16a1,1,0,0,0,2,0V13h4a1,1,0,0,0,1-1V7.816a3,3,0,1,0-2,0V11H44a1,1,0,0,0-1,1ZM49,4a1,1,0,1,1-1,1A1,1,0,0,1,49,4Z"></path><path d="M14,7.816V12a1,1,0,0,0,1,1h4v3a1,1,0,0,0,2,0V12a1,1,0,0,0-1-1H16V7.816a3,3,0,1,0-2,0ZM15,4a1,1,0,1,1-1,1A1,1,0,0,1,15,4Z"></path><path d="M39.035,7.827A.9.9,0,0,0,39,8v8a1,1,0,0,0,2,0V8a.9.9,0,0,0-.035-.173,3,3,0,1,0-1.93,0ZM40,4a1,1,0,1,1-1,1A1,1,0,0,1,40,4Z"></path><path d="M31.035,7.827A.9.9,0,0,0,31,8v8a1,1,0,0,0,2,0V8a.9.9,0,0,0-.035-.173,3,3,0,1,0-1.93,0ZM32,4a1,1,0,1,1-1,1A1,1,0,0,1,32,4Z"></path><path d="M23.035,7.827A.9.9,0,0,0,23,8v8a1,1,0,0,0,2,0V8a.9.9,0,0,0-.035-.173,3,3,0,1,0-1.93,0ZM24,4a1,1,0,1,1-1,1A1,1,0,0,1,24,4Z"></path><path d="M16,41a1,1,0,0,0,0-2H7.816a3,3,0,1,0,0,2ZM5,41a1,1,0,1,1,1-1A1,1,0,0,1,5,41Z"></path><path d="M5,27a3,3,0,0,0,2.816-2H16a1,1,0,0,0,0-2H7.816A2.995,2.995,0,1,0,5,27Zm0-4a1,1,0,1,1-1,1A1,1,0,0,1,5,23Z"></path><path d="M5,35a3,3,0,0,0,2.816-2H16a1,1,0,0,0,0-2H7.816A2.995,2.995,0,1,0,5,35Zm0-4a1,1,0,1,1-1,1A1,1,0,0,1,5,31Z"></path><path d="M48,23a1,1,0,0,0,0,2h8.184a3,3,0,1,0,0-2Zm11,0a1,1,0,1,1-1,1A1,1,0,0,1,59,23Z"></path><path d="M59,37a3,3,0,0,0-2.816,2H48a1,1,0,0,0,0,2h8.184A2.995,2.995,0,1,0,59,37Zm0,4a1,1,0,1,1,1-1A1,1,0,0,1,59,41Z"></path><path d="M59,29a3,3,0,0,0-2.816,2H48a1,1,0,0,0,0,2h8.184A2.995,2.995,0,1,0,59,29Zm0,4a1,1,0,1,1,1-1A1,1,0,0,1,59,33Z"></path><path d="M50,56.184V52a1,1,0,0,0-1-1H45V48a1,1,0,0,0-2,0v4a1,1,0,0,0,1,1h4v3.184a3,3,0,1,0,2,0ZM49,60a1,1,0,1,1,1-1A1,1,0,0,1,49,60Z"></path><path d="M21,48a1,1,0,0,0-2,0v3H15a1,1,0,0,0-1,1v4.184a3,3,0,1,0,2,0V53h4a1,1,0,0,0,1-1ZM15,60a1,1,0,1,1,1-1A1,1,0,0,1,15,60Z"></path><path d="M40.965,56.173A.915.915,0,0,0,41,56V48a1,1,0,0,0-2,0v8a.9.9,0,0,0,.035.173,3,3,0,1,0,1.93,0ZM40,60a1,1,0,1,1,1-1A1,1,0,0,1,40,60Z"></path><path d="M32.965,56.173A.915.915,0,0,0,33,56V48a1,1,0,0,0-2,0v8a.9.9,0,0,0,.035.173,3,3,0,1,0,1.93,0ZM32,60a1,1,0,1,1,1-1A1,1,0,0,1,32,60Z"></path><path d="M24.965,56.173A.915.915,0,0,0,25,56V48a1,1,0,0,0-2,0v8a.9.9,0,0,0,.035.173,3,3,0,1,0,1.93,0ZM24,60a1,1,0,1,1,1-1A1,1,0,0,1,24,60Z"></path></g></svg>