<svg xmlns="http://www.w3.org/2000/svg" xmlns:xlink="http://www.w3.org/1999/xlink" version="1.1" x="0px" y="0px" viewBox="0 0 90 90" enable-background="new 0 0 90 90" xml:space="preserve"><ellipse cx="8.952" cy="64.749" rx="7.606" ry="2.665"></ellipse><ellipse cx="81.045" cy="65.104" rx="7.605" ry="2.665"></ellipse><ellipse cx="26.223" cy="64.927" rx="7.605" ry="2.665"></ellipse><ellipse cx="63.299" cy="64.927" rx="7.605" ry="2.665"></ellipse><ellipse cx="44.919" cy="64.927" rx="7.606" ry="2.665"></ellipse><ellipse cx="11.464" cy="58.008" rx="6.61" ry="2.396"></ellipse><ellipse cx="74.119" cy="58.327" rx="6.609" ry="2.396"></ellipse><ellipse cx="26.473" cy="58.167" rx="6.61" ry="2.397"></ellipse><ellipse cx="58.695" cy="58.167" rx="6.609" ry="2.397"></ellipse><ellipse cx="42.722" cy="58.167" rx="6.61" ry="2.397"></ellipse><ellipse cx="14.58" cy="52.12" rx="5.607" ry="1.58"></ellipse><ellipse cx="67.727" cy="52.331" rx="5.607" ry="1.58"></ellipse><ellipse cx="27.312" cy="52.226" rx="5.606" ry="1.58"></ellipse><ellipse cx="54.645" cy="52.226" rx="5.607" ry="1.58"></ellipse><ellipse cx="41.094" cy="52.226" rx="5.607" ry="1.58"></ellipse><ellipse cx="16.551" cy="47.647" rx="4.885" ry="1.192"></ellipse><ellipse cx="62.852" cy="47.807" rx="4.885" ry="1.192"></ellipse><ellipse cx="27.643" cy="47.727" rx="4.884" ry="1.193"></ellipse><ellipse cx="51.455" cy="47.727" rx="4.884" ry="1.193"></ellipse><ellipse cx="39.65" cy="47.727" rx="4.885" ry="1.193"></ellipse><ellipse cx="18.845" cy="43.369" rx="4.031" ry="1.193"></ellipse><ellipse cx="57.05" cy="43.528" rx="4.031" ry="1.193"></ellipse><ellipse cx="27.998" cy="43.449" rx="4.03" ry="1.193"></ellipse><ellipse cx="47.645" cy="43.449" rx="4.031" ry="1.193"></ellipse><ellipse cx="37.905" cy="43.449" rx="4.031" ry="1.193"></ellipse><ellipse cx="21.988" cy="39.645" rx="3.371" ry="1.124"></ellipse><ellipse cx="53.938" cy="39.795" rx="3.371" ry="1.124"></ellipse><ellipse cx="29.642" cy="39.72" rx="3.371" ry="1.124"></ellipse><ellipse cx="46.074" cy="39.72" rx="3.371" ry="1.124"></ellipse><ellipse cx="37.928" cy="39.72" rx="3.371" ry="1.124"></ellipse><ellipse cx="24.177" cy="37.176" rx="3.004" ry="0.774"></ellipse><ellipse cx="52.656" cy="37.279" rx="3.004" ry="0.774"></ellipse><ellipse cx="31" cy="37.228" rx="3.004" ry="0.774"></ellipse><ellipse cx="45.646" cy="37.228" rx="3.004" ry="0.774"></ellipse><ellipse cx="38.385" cy="37.228" rx="3.004" ry="0.774"></ellipse><ellipse cx="27.562" cy="35.028" rx="2.587" ry="0.578"></ellipse><ellipse cx="52.085" cy="35.105" rx="2.587" ry="0.578"></ellipse><ellipse cx="33.437" cy="35.066" rx="2.587" ry="0.578"></ellipse><ellipse cx="46.049" cy="35.066" rx="2.587" ry="0.578"></ellipse><ellipse cx="39.797" cy="35.066" rx="2.587" ry="0.578"></ellipse><ellipse cx="31" cy="33.148" rx="2.234" ry="0.578"></ellipse><ellipse cx="52.171" cy="33.226" rx="2.233" ry="0.577"></ellipse><ellipse cx="36.072" cy="33.187" rx="2.234" ry="0.578"></ellipse><ellipse cx="46.96" cy="33.187" rx="2.233" ry="0.578"></ellipse><ellipse cx="41.562" cy="33.187" rx="2.233" ry="0.578"></ellipse><ellipse cx="34.264" cy="31.51" rx="1.959" ry="0.39"></ellipse><ellipse cx="52.838" cy="31.562" rx="1.959" ry="0.39"></ellipse><ellipse cx="38.713" cy="31.536" rx="1.959" ry="0.39"></ellipse><ellipse cx="48.266" cy="31.536" rx="1.959" ry="0.39"></ellipse><ellipse cx="43.531" cy="31.536" rx="1.96" ry="0.39"></ellipse><ellipse cx="37.507" cy="30.39" rx="1.718" ry="0.262"></ellipse><ellipse cx="53.786" cy="30.425" rx="1.718" ry="0.262"></ellipse><ellipse cx="41.407" cy="30.407" rx="1.718" ry="0.262"></ellipse><ellipse cx="49.779" cy="30.407" rx="1.718" ry="0.262"></ellipse><ellipse cx="45.629" cy="30.407" rx="1.717" ry="0.262"></ellipse><ellipse cx="41.268" cy="29.464" rx="1.471" ry="0.262"></ellipse><ellipse cx="55.211" cy="29.499" rx="1.471" ry="0.262"></ellipse><ellipse cx="44.608" cy="29.481" rx="1.471" ry="0.262"></ellipse><ellipse cx="51.778" cy="29.481" rx="1.471" ry="0.262"></ellipse><ellipse cx="48.225" cy="29.481" rx="1.471" ry="0.262"></ellipse><ellipse cx="45.039" cy="28.575" rx="1.172" ry="0.193"></ellipse><ellipse cx="56.146" cy="28.601" rx="1.172" ry="0.193"></ellipse><ellipse cx="47.699" cy="28.588" rx="1.172" ry="0.193"></ellipse><ellipse cx="53.412" cy="28.588" rx="1.172" ry="0.193"></ellipse><ellipse cx="50.58" cy="28.588" rx="1.172" ry="0.193"></ellipse><ellipse cx="48.121" cy="27.845" rx="1.015" ry="0.193"></ellipse><ellipse cx="57.743" cy="27.871" rx="1.015" ry="0.192"></ellipse><ellipse cx="50.425" cy="27.858" rx="1.015" ry="0.193"></ellipse><ellipse cx="55.374" cy="27.858" rx="1.015" ry="0.193"></ellipse><ellipse cx="52.921" cy="27.858" rx="1.015" ry="0.193"></ellipse><ellipse cx="51.947" cy="27.208" rx="0.906" ry="0.104"></ellipse><ellipse cx="60.544" cy="27.222" rx="0.907" ry="0.105"></ellipse><ellipse cx="54.007" cy="27.215" rx="0.907" ry="0.105"></ellipse><ellipse cx="58.428" cy="27.215" rx="0.907" ry="0.105"></ellipse><ellipse cx="56.236" cy="27.215" rx="0.906" ry="0.105"></ellipse><ellipse cx="54.262" cy="26.675" rx="0.787" ry="0.104"></ellipse><ellipse cx="61.721" cy="26.689" rx="0.787" ry="0.105"></ellipse><ellipse cx="56.049" cy="26.682" rx="0.787" ry="0.105"></ellipse><ellipse cx="59.885" cy="26.682" rx="0.787" ry="0.105"></ellipse><ellipse cx="57.982" cy="26.682" rx="0.787" ry="0.105"></ellipse><ellipse cx="56.259" cy="26.17" rx="0.694" ry="0.105"></ellipse><ellipse cx="62.843" cy="26.184" rx="0.694" ry="0.105"></ellipse><ellipse cx="57.836" cy="26.177" rx="0.695" ry="0.105"></ellipse><ellipse cx="61.222" cy="26.177" rx="0.694" ry="0.105"></ellipse><ellipse cx="59.544" cy="26.177" rx="0.694" ry="0.105"></ellipse><ellipse cx="58.445" cy="25.704" rx="0.634" ry="0.076"></ellipse><ellipse cx="64.456" cy="25.714" rx="0.634" ry="0.076"></ellipse><ellipse cx="59.885" cy="25.709" rx="0.634" ry="0.076"></ellipse><ellipse cx="62.976" cy="25.709" rx="0.634" ry="0.076"></ellipse><ellipse cx="61.444" cy="25.709" rx="0.634" ry="0.076"></ellipse><ellipse cx="59.524" cy="25.36" rx="0.579" ry="0.076"></ellipse><ellipse cx="65.011" cy="25.37" rx="0.579" ry="0.076"></ellipse><ellipse cx="60.838" cy="25.365" rx="0.579" ry="0.076"></ellipse><ellipse cx="63.66" cy="25.365" rx="0.579" ry="0.076"></ellipse><ellipse cx="62.261" cy="25.365" rx="0.579" ry="0.076"></ellipse><ellipse cx="59.619" cy="24.988" rx="0.545" ry="0.076"></ellipse><ellipse cx="64.787" cy="24.999" rx="0.545" ry="0.076"></ellipse><ellipse cx="60.857" cy="24.993" rx="0.545" ry="0.076"></ellipse><ellipse cx="63.516" cy="24.993" rx="0.545" ry="0.076"></ellipse><ellipse cx="62.197" cy="24.993" rx="0.545" ry="0.076"></ellipse><ellipse cx="59.484" cy="24.642" rx="0.504" ry="0.062"></ellipse><ellipse cx="64.266" cy="24.65" rx="0.504" ry="0.062"></ellipse><ellipse cx="60.629" cy="24.646" rx="0.504" ry="0.062"></ellipse><ellipse cx="63.088" cy="24.646" rx="0.504" ry="0.062"></ellipse><ellipse cx="61.87" cy="24.646" rx="0.504" ry="0.062"></ellipse><ellipse cx="59.202" cy="24.368" rx="0.46" ry="0.062"></ellipse><ellipse cx="63.565" cy="24.376" rx="0.46" ry="0.062"></ellipse><ellipse cx="60.247" cy="24.372" rx="0.46" ry="0.062"></ellipse><ellipse cx="62.492" cy="24.372" rx="0.46" ry="0.062"></ellipse><ellipse cx="61.379" cy="24.372" rx="0.461" ry="0.062"></ellipse></svg>