<svg xmlns="http://www.w3.org/2000/svg" xmlns:xlink="http://www.w3.org/1999/xlink" viewBox="0 0 34 36" version="1.1" x="0px" y="0px"><title>icon-report@1x</title><desc>Created with Sketch.</desc><g stroke="none" stroke-width="1" fill="none" fill-rule="evenodd"><g transform="translate(-8.000000, -2.000000)" fill="#000000"><g transform="translate(8.000000, 2.000000)"><path d="M22.952,-0.0004 C23.503,-0.0004 23.952,0.4476 23.952,0.9996 L23.952,34.6646 C23.952,35.2166 23.503,35.6646 22.952,35.6646 L1,35.6646 C0.448,35.6646 0,35.2166 0,34.6646 L0,0.9996 C0,0.4476 0.448,-0.0004 1,-0.0004 L22.952,-0.0004 Z M2,33.6646 L21.952,33.6646 L21.952,1.9996 L2,1.9996 L2,33.6646 Z M32.4429,2.017 C33.1599,2.017 33.7409,2.598 33.7409,3.315 L33.7409,32.35 C33.7409,33.067 33.1599,33.648 32.4429,33.648 L25.9519,33.648 L25.9519,31.648 L31.7409,31.648 L31.7409,4.017 L25.9519,4.017 L25.9519,2.017 L32.4429,2.017 Z M19.8492,27.6503 C19.9042,27.6503 19.9492,27.6943 19.9492,27.7503 L19.9492,29.5503 C19.9492,29.6053 19.9042,29.6503 19.8492,29.6503 L4.1032,29.6503 C4.0472,29.6503 4.0022,29.6053 4.0022,29.5503 L4.0022,27.7503 C4.0022,27.6943 4.0472,27.6503 4.1032,27.6503 L19.8492,27.6503 Z M19.8492,23.6503 C19.9042,23.6503 19.9492,23.6943 19.9492,23.7503 L19.9492,25.5503 C19.9492,25.6053 19.9042,25.6503 19.8492,25.6503 L4.1032,25.6503 C4.0472,25.6503 4.0022,25.6053 4.0022,25.5503 L4.0022,23.7503 C4.0022,23.6943 4.0472,23.6503 4.1032,23.6503 L19.8492,23.6503 Z"></path><path d="M4.9517,17.122 C4.3987,17.122 3.9517,16.674 3.9517,16.122 C3.9517,15.57 4.3987,15.122 4.9517,15.122 L6.4857,15.122 L9.0177,4.678 C9.1297,4.219 9.5587,3.89 10.0187,3.914 C10.4917,3.928 10.8887,4.271 10.9737,4.736 L12.8337,15.007 L13.4157,11.544 C13.4927,11.088 13.8727,10.744 14.3347,10.713 C14.7907,10.679 15.2197,10.971 15.3567,11.413 L16.5427,15.218 L18.9997,15.218 C19.5527,15.218 19.9997,15.665 19.9997,16.218 C19.9997,16.77 19.5527,17.218 18.9997,17.218 L15.8067,17.218 C15.3697,17.218 14.9827,16.933 14.8517,16.516 L14.6937,16.006 L13.8557,20.987 C13.7747,21.466 13.3617,21.818 12.8757,21.821 L12.8697,21.821 C12.3867,21.821 11.9727,21.476 11.8857,20.999 L9.8477,9.743 L8.2437,16.358 C8.1357,16.806 7.7337,17.122 7.2717,17.122 L4.9517,17.122 Z M29.7339,23.5502 C29.7339,23.6052 29.6899,23.6502 29.6339,23.6502 L25.9519,23.6502 L25.9519,21.6502 L29.6339,21.6502 C29.6899,21.6502 29.7339,21.6952 29.7339,21.7502 L29.7339,23.5502 Z M29.7339,27.5502 C29.7339,27.6052 29.6899,27.6502 29.6339,27.6502 L25.9519,27.6502 L25.9519,25.6502 L29.6339,25.6502 C29.6899,25.6502 29.7339,25.6952 29.7339,25.7502 L29.7339,27.5502 Z M29.7339,15.5502 C29.7339,15.6052 29.6899,15.6502 29.6339,15.6502 L25.9519,15.6502 L25.9519,13.6502 L29.6339,13.6502 C29.6899,13.6502 29.7339,13.6952 29.7339,13.7502 L29.7339,15.5502 Z M29.7339,19.5502 C29.7339,19.6052 29.6899,19.6502 29.6339,19.6502 L25.9519,19.6502 L25.9519,17.6502 L29.6339,17.6502 C29.6899,17.6502 29.7339,17.6952 29.7339,17.7502 L29.7339,19.5502 Z"></path></g></g></g></svg>