<?xml version="1.0" encoding="UTF-8" standalone="no"?>
<!DOCTYPE svg PUBLIC "-//W3C//DTD SVG 1.1//EN" "http://www.w3.org/Graphics/SVG/1.1/DTD/svg11.dtd">
<!-- Generiert durch Microsoft Visio, SVG Export acceleration.svg acceleration -->
<svg xmlns="http://www.w3.org/2000/svg" xmlns:xlink="http://www.w3.org/1999/xlink" xmlns:ev="http://www.w3.org/2001/xml-events"
		xmlns:v="http://schemas.microsoft.com/visio/2003/SVGExtensions/" width="8.5in" height="8.5in" viewBox="0 0 612 612"
		xml:space="preserve" color-interpolation-filters="sRGB" class="st3">
	<v:documentProperties v:langID="1031"/>

	<style type="text/css">
	<![CDATA[
		.st1 {fill:#000000;stroke:none;stroke-linecap:butt;stroke-width:0.830393}
		.st2 {fill:#000000;stroke:none;stroke-linecap:butt;stroke-width:6.12}
		.st3 {fill:none;fill-rule:evenodd;font-size:12px;overflow:visible;stroke-linecap:square;stroke-miterlimit:3}
	]]>
	</style>

	<g v:mID="0" v:index="1" v:groupContext="foregroundPage">
		<title>acceleration</title>
		<v:pageProperties v:drawingScale="1" v:pageScale="1" v:drawingUnits="19" v:shadowOffsetX="9" v:shadowOffsetY="-9"/>
		<g id="group1-1" transform="translate(-1.835,-36)" v:mID="1" v:groupContext="group">
			<title>Tabelle.1</title>
			<g id="shape2-2" v:mID="2" v:groupContext="shape" transform="translate(0,-40.033)">
				<title>Tabelle.2</title>
				<path d="M21.23 480.18 C83.3 355.2 338.92 341.53 441 444.06 C500.62 452.84 669.67 510.45 591.27 611.03 L542.27 611.03
							 C546.35 601.26 548.8 589.55 548.8 577.83 C548.8 533.89 516.95 498.74 476.94 498.74 C436.92 498.74 404.25
							 533.89 404.25 577.83 C404.25 589.55 406.7 601.26 410.79 611.03 L204.99 612 C209.89 601.26 213.15 588.56
							 213.15 575.86 C213.15 531.94 180.48 496.78 140.47 496.78 C100.45 496.78 67.78 531.94 67.78 575.86 C67.78
							 588.56 71.05 601.26 75.95 612 C3.27 612 0 559.27 21.23 480.18 ZM169.87 410.86 C146.18 435.27 151.08
							 453.82 186.2 465.53 C256.44 482.14 329.12 461.63 399.35 448.94 C342.19 384.49 240.1 389.38 169.87 410.86
							 Z" class="st1"/>
			</g>
			<g id="shape3-4" v:mID="3" v:groupContext="shape" transform="translate(80.034,-1.59162E-12)">
				<title>Tabelle.3</title>
				<path d="M60.43 474.33 C93.1 474.33 120.05 504.59 120.05 542.67 C120.05 580.75 93.1 612 60.43 612 C26.95 612 0 580.75
							 0 542.67 C0 504.59 26.95 474.33 60.43 474.33 ZM60.43 511.42 C74.32 511.42 86.57 525.1 86.57 541.7 C86.57
							 558.3 74.32 571.97 60.43 571.97 C45.73 571.97 33.48 558.3 33.48 541.7 C33.48 525.1 45.73 511.42 60.43
							 511.42 Z" class="st1"/>
			</g>
			<g id="shape4-6" v:mID="4" v:groupContext="shape" transform="translate(417.32,-1.59162E-12)">
				<title>Tabelle.4</title>
				<path d="M59.62 474.33 C93.1 474.33 120.05 504.59 120.05 542.67 C120.05 580.75 93.1 612 59.62 612 C26.95 612 0 580.75
							 0 542.67 C0 504.59 26.95 474.33 59.62 474.33 ZM59.62 511.42 C74.32 511.42 85.75 525.1 85.75 541.7 C85.75
							 558.3 74.32 571.97 59.62 571.97 C44.92 571.97 33.48 558.3 33.48 541.7 C33.48 525.1 44.92 511.42 59.62
							 511.42 Z" class="st1"/>
			</g>
		</g>
		<g id="group5-8" transform="translate(204.007,-306)" v:mID="5" v:groupContext="group">
			<title>Tabelle.5</title>
			<g id="shape6-9" v:mID="6" v:groupContext="shape" transform="translate(170.792,1.59162E-12)">
				<title>Tabelle.6</title>
				<path d="M82.55 521.49 L49.83 459.01 C46.65 452.96 39.7 449.03 32.12 449.03 L12.06 449.03 C7.83 449.03 3.94 451.11
							 1.9 454.48 C0.11 457.44 0 461.03 1.6 464.09 L33.39 524.78 C35.32 528.47 35.32 532.56 33.39 536.25 L1.6
							 596.93 C0 600 0.11 603.59 1.9 606.55 C3.94 609.92 7.83 612 12.06 612 L32.12 612 C39.69 612 46.65 608.08
							 49.83 602.01 L82.55 539.54 C85.56 533.8 85.56 527.22 82.55 521.49 ZM74.39 535.26 L41.68 597.73 C40.07
							 600.8 36.32 602.78 32.12 602.78 L12.06 602.78 C10.91 602.78 10.09 602.28 9.8 601.78 C9.64 601.51 9.68
							 601.38 9.77 601.2 L41.55 540.52 C44.88 534.17 44.88 526.87 41.55 520.51 L9.77 459.82 C9.68 459.66 9.64
							 459.52 9.8 459.25 C10.1 458.74 10.92 458.25 12.07 458.25 L32.13 458.25 C36.32 458.25 40.07 460.23 41.68
							 463.3 L74.4 525.77 C76 528.83 76 532.2 74.39 535.26 Z" class="st2"/>
			</g>
			<g id="shape7-11" v:mID="7" v:groupContext="shape" transform="translate(243.606,-0.00460729)">
				<title>Tabelle.7</title>
				<path d="M82.55 521.5 L49.84 459.03 C46.65 452.96 39.7 449.03 32.12 449.03 L12.06 449.03 C7.84 449.03 3.94 451.12
							 1.9 454.48 C0.11 457.44 0 461.04 1.61 464.1 L33.39 524.79 C35.32 528.48 35.32 532.56 33.39 536.25 L1.61
							 596.93 C0 600 0.11 603.59 1.9 606.55 C3.94 609.92 7.83 612 12.06 612 L32.12 612 C39.7 612 46.65 608.08
							 49.84 602.01 L82.55 539.54 C85.56 533.81 85.56 527.23 82.55 521.5 ZM74.4 535.27 L41.68 597.73 C40.07
							 600.81 36.32 602.79 32.12 602.79 L12.06 602.79 C10.91 602.79 10.09 602.28 9.79 601.79 C9.63 601.52 9.67
							 601.38 9.76 601.21 L41.54 540.53 C44.88 534.17 44.88 526.87 41.54 520.51 L9.77 459.82 C9.68 459.66 9.64
							 459.52 9.8 459.25 C10.1 458.74 10.91 458.25 12.07 458.25 L32.13 458.25 C36.33 458.25 40.08 460.23 41.69
							 463.3 L74.4 525.77 C76 528.83 76 532.2 74.4 535.27 Z" class="st2"/>
			</g>
			<g id="shape8-13" v:mID="8" v:groupContext="shape" transform="translate(316.428,1.59162E-12)">
				<title>Tabelle.8</title>
				<path d="M82.55 521.49 L49.83 459.01 C46.65 452.96 39.7 449.03 32.12 449.03 L12.06 449.03 C7.84 449.03 3.94 451.11
							 1.9 454.48 C0.11 457.44 0 461.03 1.6 464.09 L33.39 524.78 C35.32 528.47 35.32 532.56 33.39 536.25 L1.6
							 596.93 C0 600 0.11 603.59 1.9 606.55 C3.94 609.92 7.83 612 12.06 612 L32.12 612 C39.69 612 46.65 608.08
							 49.83 602.01 L82.55 539.54 C85.56 533.8 85.56 527.22 82.55 521.49 ZM74.39 535.26 L41.68 597.73 C40.07
							 600.8 36.32 602.78 32.12 602.78 L12.06 602.78 C10.91 602.78 10.09 602.28 9.8 601.78 C9.64 601.51 9.68
							 601.37 9.77 601.2 L41.55 540.52 C44.88 534.17 44.88 526.87 41.55 520.51 L9.77 459.82 C9.68 459.66 9.64
							 459.52 9.8 459.25 C10.1 458.74 10.92 458.25 12.07 458.25 L32.13 458.25 C36.32 458.25 40.07 460.23 41.68
							 463.3 L74.4 525.77 C75.99 528.83 75.99 532.2 74.39 535.26 Z" class="st2"/>
			</g>
			<g id="shape9-15" v:mID="9" v:groupContext="shape" transform="translate(2.01439E-12,-22.0367)">
				<title>Tabelle.9</title>
				<path d="M152.34 601.87 C98.01 608.58 44.87 578.14 23.13 527.8 C9.98 497.35 9.47 463.59 21.7 432.75 C33.94 401.91
							 57.45 377.69 87.9 364.53 C150.78 337.38 224.02 366.43 251.18 429.3 C253.09 433.73 254.76 438.32 256.14
							 442.9 C256.88 445.34 259.45 446.72 261.89 445.99 C264.32 445.25 265.7 442.68 264.96 440.24 C263.49 435.31
							 261.68 430.4 259.63 425.65 C230.47 358.1 151.78 326.89 84.25 356.07 C51.54 370.2 26.28 396.23 13.14
							 429.35 C0 462.48 0.54 498.74 14.67 531.46 C35.86 580.53 84.84 612 137.36 612 C142.7 612 148.09 611.67
							 153.48 611.01 C156 610.69 157.79 608.4 157.49 605.86 C157.17 603.34 154.89 601.53 152.34 601.87 Z"
						class="st2"/>
			</g>
			<g id="shape10-17" v:mID="10" v:groupContext="shape" transform="translate(119.011,-118.73)">
				<title>Tabelle.10</title>
				<path d="M15.08 504.95 C12.78 505 10.87 506.74 10.6 509.01 L0.57 593.57 C0 598.45 1.61 603.31 5 606.87 C8.13 610.16
							 12.42 612 16.94 612 C17.3 612 17.68 611.99 18.04 611.97 C22.59 611.66 26.86 609.46 29.74 605.92 C32.61
							 602.38 33.91 597.77 33.26 593.15 L19.73 508.82 C19.36 506.56 17.18 504.82 15.08 504.95 ZM22.59 600.11
							 C21.3 601.69 19.47 602.63 17.43 602.77 C15.24 602.89 13.16 602.09 11.67 600.53 C10.18 598.95 9.46 596.81
							 9.72 594.66 L15.85 542.89 L24.14 594.51 C24.44 596.54 23.87 598.52 22.59 600.11 Z" class="st2"/>
			</g>
			<g id="shape11-19" v:mID="11" v:groupContext="shape" transform="translate(35.8079,-53.8685)">
				<title>Tabelle.11</title>
				<path d="M128.13 454.44 C128.13 456.03 128.96 457.58 130.43 458.44 C131.16 458.86 131.95 459.05 132.73 459.05 C134.33
							 459.05 135.87 458.23 136.73 456.75 L150.9 432.2 C162.1 439.25 171.72 448.7 179.08 460.05 L154.17 474.43
							 C152.68 475.29 151.86 476.83 151.86 478.42 C151.86 479.2 152.06 479.99 152.48 480.72 C153.33 482.2 154.88
							 483.02 156.48 483.02 C157.25 483.02 158.04 482.83 158.77 482.4 L183.72 468.01 C185 470.51 186.23 473.07
							 187.3 475.72 C188.25 478.08 190.93 479.22 193.3 478.26 C195.65 477.3 196.79 474.62 195.83 472.26 C180.21
							 433.69 143.23 408.77 101.62 408.77 C45.58 408.77 0 454.35 0 510.38 C0 566.42 45.58 612 101.62 612 C110.23
							 612 118.79 610.92 127.05 608.78 C129.52 608.15 131.01 605.64 130.36 603.17 C129.73 600.71 127.21 599.23
							 124.76 599.86 C118.04 601.6 111.12 602.52 104.14 602.7 L104.14 575.88 C104.14 573.33 102.08 571.27 99.53
							 571.27 C96.99 571.27 94.93 573.33 94.93 575.88 L94.93 602.44 C81.65 601.48 69.13 597.79 57.99 591.79
							 L70.98 569.29 C71.4 568.57 71.59 567.77 71.59 566.99 C71.59 565.39 70.77 563.85 69.3 562.99 C67.08 561.72
							 64.28 562.48 63 564.68 L50.09 587.04 C39.47 579.87 30.47 570.52 23.6 559.67 L45.57 546.99 C47.05 546.14
							 47.87 544.59 47.87 543.01 C47.87 542.22 47.68 541.43 47.25 540.7 C45.98 538.5 43.16 537.74 40.95 539.02
							 L19.06 551.65 C13.48 540.52 10.1 528.12 9.46 514.99 L34.69 514.99 C37.24 514.99 39.3 512.93 39.3 510.38
							 C39.3 507.84 37.24 505.78 34.69 505.78 L9.46 505.78 C10.11 492.62 13.49 480.18 19.11 469.02 L41.29 481.83
							 C42.01 482.24 42.81 482.45 43.59 482.45 C45.19 482.45 46.73 481.63 47.59 480.14 C48 479.42 48.21 478.63
							 48.21 477.84 C48.21 476.25 47.37 474.7 45.9 473.86 L23.66 461.01 C30.58 450.12 39.66 440.73 50.38 433.55
							 L63.58 456.41 C64.43 457.9 65.98 458.72 67.57 458.72 C68.35 458.72 69.15 458.52 69.87 458.1 C71.35 457.25
							 72.17 455.69 72.17 454.1 C72.17 453.33 71.98 452.53 71.56 451.81 L58.28 428.82 C71.22 421.92 85.96 417.98
							 101.62 417.98 C116.3 417.98 130.34 421.44 142.86 427.66 L128.74 452.13 C128.33 452.87 128.13 453.65
							 128.13 454.44 Z" class="st2"/>
			</g>
		</g>
	</g>
</svg>
