<?xml version="1.0" encoding="UTF-8" standalone="no"?>
<!DOCTYPE svg PUBLIC "-//W3C//DTD SVG 1.1//EN" "http://www.w3.org/Graphics/SVG/1.1/DTD/svg11.dtd">
<!-- Generiert durch Microsoft Visio, SVG Export air.svg acceleration -->
<svg xmlns="http://www.w3.org/2000/svg" xmlns:xlink="http://www.w3.org/1999/xlink" xmlns:ev="http://www.w3.org/2001/xml-events"
		xmlns:v="http://schemas.microsoft.com/visio/2003/SVGExtensions/" width="8.5in" height="6.5in" viewBox="0 0 612 468"
		xml:space="preserve" color-interpolation-filters="sRGB" class="st3">
	<v:documentProperties v:langID="1031"/>

	<style type="text/css">
	<![CDATA[
		.st1 {fill:#000000;stroke:none;stroke-linecap:butt;stroke-width:6.12}
		.st2 {fill:#000000;stroke:none;stroke-linecap:butt;stroke-width:0.830393}
		.st3 {fill:none;fill-rule:evenodd;font-size:12px;overflow:visible;stroke-linecap:square;stroke-miterlimit:3}
	]]>
	</style>

	<g v:mID="0" v:index="1" v:groupContext="foregroundPage">
		<title>acceleration</title>
		<v:pageProperties v:drawingScale="1" v:pageScale="1" v:drawingUnits="19" v:shadowOffsetX="9" v:shadowOffsetY="-9"/>
		<g id="group17-1" transform="translate(598.5,-227.983) scale(-1,1)" v:mID="17" v:groupContext="group">
			<title>Tabelle.17</title>
			<g id="shape18-2" v:mID="18" v:groupContext="shape">
				<title>Tabelle.18</title>
				<path d="M204.4 251.07 C171.79 251.07 147.4 278.21 147.04 311.58 C146.94 320.87 147.04 324.58 147.04 327.64 C146.99
							 331.01 150.04 334.11 153.41 334.11 C156.78 334.11 159.83 331.01 159.78 327.64 C159.78 324.31 159.68
							 320.84 159.78 311.68 C160.08 284.27 178.74 263.83 204.4 263.83 L207.58 263.83 C233.24 263.83 255.38
							 284.8 255.38 311.68 C255.38 338.57 233.24 359.54 207.58 359.54 L25.95 359.54 C22.58 359.49 19.49 362.55
							 19.49 365.92 C19.49 369.29 22.58 372.34 25.95 372.3 L207.58 372.3 C240.18 372.3 268.13 345.59 268.13
							 311.68 C268.13 277.78 240.18 251.07 207.58 251.07 L204.4 251.07 ZM73.75 282.97 C56.83 282.97 41.88 296.96
							 41.88 314.87 L41.88 321.25 C41.83 324.63 44.89 327.73 48.25 327.73 C51.62 327.73 54.68 324.63 54.63
							 321.25 L54.63 314.87 C54.63 304.19 63.97 295.73 73.75 295.73 L76.93 295.73 C86.72 295.73 96.05 304.19
							 96.05 314.87 C96.05 325.76 87.41 334.02 77.63 334.02 L38.7 334.02 C35.33 333.97 32.23 337.02 32.23 340.4
							 C32.23 343.77 35.33 346.82 38.7 346.78 L77.63 346.78 C94.55 346.78 108.8 332.59 108.8 314.87 C108.8
							 296.96 93.85 282.97 76.93 282.97 L73.75 282.97 ZM6.23 334.02 C2.89 334.17 0 337.35 0.16 340.69 C0.31
							 344.04 3.49 346.93 6.83 346.78 L13.2 346.78 C16.57 346.82 19.67 343.77 19.67 340.4 C19.67 337.02 16.57
							 333.97 13.2 334.02 C10.91 334.01 8.48 334.02 6.23 334.02 ZM6.23 385.06 C2.89 385.21 0 388.4 0.16 391.74
							 C0.31 395.08 3.49 397.97 6.83 397.82 L233.07 397.82 C249.07 397.82 261.75 410.51 261.75 426.53 C261.75
							 442.54 249.07 455.24 233.07 455.24 L229.89 455.24 C213.89 455.24 201.03 442.46 201.21 426.53 C201.24
							 423.36 201.21 420.33 201.21 416.96 C201.26 413.59 198.2 410.49 194.84 410.49 C191.47 410.49 188.42 413.59
							 188.46 416.96 C188.46 420.42 188.5 423.45 188.46 426.43 C188.21 449.38 207.05 468 229.89 468 L233.07
							 468 C255.91 468 274.5 449.39 274.5 426.53 C274.5 403.66 255.91 385.06 233.07 385.06 C157.47 385.06 81.79
							 385.06 6.23 385.06 ZM34.91 410.58 C31.57 410.73 28.68 413.92 28.84 417.26 C28.99 420.6 32.17 423.5 35.51
							 423.34 L86.49 423.34 C89.86 423.39 92.96 420.33 92.96 416.96 C92.96 413.59 89.86 410.53 86.49 410.58
							 C69.32 410.58 52.04 410.58 34.91 410.58 ZM111.39 410.58 C108.05 410.73 105.16 413.92 105.31 417.26 C105.47
							 420.6 108.65 423.5 111.99 423.34 L118.36 423.34 C121.73 423.39 124.82 420.33 124.82 416.96 C124.82 413.59
							 121.73 410.53 118.36 410.58 C116.06 410.58 113.63 410.58 111.39 410.58 Z" class="st1"/>
			</g>
		</g>
		<g id="group12-4" transform="translate(-5.92268,-32.9349)" v:mID="12" v:groupContext="group">
			<title>Tabelle.12</title>
			<g id="group13-5" transform="translate(0,23.9349)" v:mID="13" v:groupContext="group">
				<title>Tabelle.13</title>
				<g id="shape14-6" v:mID="14" v:groupContext="shape" transform="translate(0,-33.3)">
					<title>Tabelle.14</title>
					<path d="M21.12 358.35 C82.84 254.39 337.06 243.02 438.59 328.3 C497.88 335.61 666 383.53 588.03 467.19 L539.3
								 467.19 C543.36 459.07 545.8 449.32 545.8 439.57 C545.8 403.02 514.12 373.79 474.32 373.79 C434.52
								 373.79 402.04 403.02 402.04 439.57 C402.04 449.32 404.47 459.07 408.53 467.19 L203.86 468 C208.73
								 459.07 211.98 448.51 211.98 437.95 C211.98 401.4 179.5 372.16 139.7 372.16 C99.9 372.16 67.41 401.4
								 67.41 437.95 C67.41 448.51 70.66 459.07 75.53 468 C3.25 468 0 424.14 21.12 358.35 ZM168.94 300.69
								 C145.38 320.99 150.26 336.42 185.18 346.17 C255.03 359.98 327.31 342.92 397.16 332.36 C340.31 278.76
								 238.79 282.82 168.94 300.69 Z" class="st2"/>
				</g>
				<g id="shape15-8" v:mID="15" v:groupContext="shape" transform="translate(79.5951,-1.25056E-12)">
					<title>Tabelle.15</title>
					<path d="M60.1 353.48 C92.59 353.48 119.39 378.66 119.39 410.33 C119.39 442.01 92.59 468 60.1 468 C26.8 468 0
								 442.01 0 410.33 C0 378.66 26.8 353.48 60.1 353.48 ZM60.1 384.34 C73.91 384.34 86.09 395.71 86.09
								 409.52 C86.09 423.33 73.91 434.7 60.1 434.7 C45.48 434.7 33.3 423.33 33.3 409.52 C33.3 395.71 45.48
								 384.34 60.1 384.34 Z" class="st2"/>
				</g>
				<g id="shape16-10" v:mID="16" v:groupContext="shape" transform="translate(415.032,-1.25056E-12)">
					<title>Tabelle.16</title>
					<path d="M59.29 353.48 C92.59 353.48 119.39 378.66 119.39 410.33 C119.39 442.01 92.59 468 59.29 468 C26.8 468
								 0 442.01 0 410.33 C0 378.66 26.8 353.48 59.29 353.48 ZM59.29 384.34 C73.91 384.34 85.28 395.71 85.28
								 409.52 C85.28 423.33 73.91 434.7 59.29 434.7 C44.67 434.7 33.3 423.33 33.3 409.52 C33.3 395.71 44.67
								 384.34 59.29 384.34 Z" class="st2"/>
				</g>
			</g>
		</g>
	</g>
</svg>
