<svg xmlns="http://www.w3.org/2000/svg" viewBox="0 0 64 64" x="0px" y="0px"><g><path d="M48,25h8.184a3,3,0,1,0,0-2H48V21a5,5,0,0,0-3-4.576V13h4a1,1,0,0,0,1-1V7.816a3,3,0,1,0-2,0V11H44a1,1,0,0,0-1,1v4H41V8a.9.9,0,0,0-.035-.173,3,3,0,1,0-1.93,0A.9.9,0,0,0,39,8v8H33V8a.9.9,0,0,0-.035-.173,3,3,0,1,0-1.93,0A.9.9,0,0,0,31,8v8H25V8a.9.9,0,0,0-.035-.173,3,3,0,1,0-1.93,0A.9.9,0,0,0,23,8v8H21V12a1,1,0,0,0-1-1H16V7.816a3,3,0,1,0-2,0V12a1,1,0,0,0,1,1h4v3.424A5,5,0,0,0,16,21v2H7.816a3,3,0,1,0,0,2H16v6H7.816a3,3,0,1,0,0,2H16v6H7.816a3,3,0,1,0,0,2H16v2a5,5,0,0,0,3,4.576V51H15a1,1,0,0,0-1,1v4.184a3,3,0,1,0,2,0V53h4a1,1,0,0,0,1-1V48h2v8a.9.9,0,0,0,.035.173,3,3,0,1,0,1.93,0A.915.915,0,0,0,25,56V48h6v8a.9.9,0,0,0,.035.173,3,3,0,1,0,1.93,0A.915.915,0,0,0,33,56V48h6v8a.9.9,0,0,0,.035.173,3,3,0,1,0,1.93,0A.915.915,0,0,0,41,56V48h2v4a1,1,0,0,0,1,1h4v3.184a3,3,0,1,0,2,0V52a1,1,0,0,0-1-1H45V47.576A5,5,0,0,0,48,43V41h8.184a3,3,0,1,0,0-2H48V33h8.184a3,3,0,1,0,0-2H48Zm11-2a1,1,0,1,1-1,1A1,1,0,0,1,59,23ZM49,4a1,1,0,1,1-1,1A1,1,0,0,1,49,4ZM40,4a1,1,0,1,1-1,1A1,1,0,0,1,40,4ZM32,4a1,1,0,1,1-1,1A1,1,0,0,1,32,4ZM24,4a1,1,0,1,1-1,1A1,1,0,0,1,24,4ZM15,4a1,1,0,1,1-1,1A1,1,0,0,1,15,4ZM5,25a1,1,0,1,1,1-1A1,1,0,0,1,5,25Zm0,8a1,1,0,1,1,1-1A1,1,0,0,1,5,33Zm0,8a1,1,0,1,1,1-1A1,1,0,0,1,5,41ZM15,60a1,1,0,1,1,1-1A1,1,0,0,1,15,60Zm9,0a1,1,0,1,1,1-1A1,1,0,0,1,24,60Zm8,0a1,1,0,1,1,1-1A1,1,0,0,1,32,60Zm8,0a1,1,0,1,1,1-1A1,1,0,0,1,40,60Zm9,0a1,1,0,1,1,1-1A1,1,0,0,1,49,60ZM59,39a1,1,0,1,1-1,1A1,1,0,0,1,59,39Zm0-8a1,1,0,1,1-1,1A1,1,0,0,1,59,31ZM46,43a3,3,0,0,1-3,3H21a3,3,0,0,1-3-3V21a3,3,0,0,1,3-3H43a3,3,0,0,1,3,3Z"></path><path d="M41,22H23a1,1,0,0,0-1,1V41a1,1,0,0,0,1,1H41a1,1,0,0,0,1-1V23A1,1,0,0,0,41,22ZM40,40H24V24H40Z"></path><polygon points="36 38 38 38 38 26 30 26 30 28 36 28 36 38"></polygon><polygon points="34 36 28 36 28 26 26 26 26 38 34 38 34 36"></polygon></g></svg>