<svg xmlns="http://www.w3.org/2000/svg" viewBox="0 0 64 64" x="0px" y="0px"><g><path d="M46.584,40.691A16.868,16.868,0,0,0,48.505,36H41.893Z"></path><circle cx="32" cy="32" r="3"></circle><path d="M28,48.505V41.893l-4.691,4.691A16.868,16.868,0,0,0,28,48.505Z"></path><path d="M36,48.505a16.868,16.868,0,0,0,4.691-1.921L36,41.893Z"></path><path d="M15.5,36a16.868,16.868,0,0,0,1.921,4.691L22.107,36Z"></path><path d="M58,32a1,1,0,0,1,1-1h.975a27.819,27.819,0,0,0-1.807-8.948l-.9.379a1,1,0,0,1-.778-1.843l.9-.378a28.085,28.085,0,0,0-4.908-7.276l-.681.681A1,1,0,1,1,50.385,12.2l.681-.681a28.1,28.1,0,0,0-7.652-5.078l-.365.9a1,1,0,1,1-1.854-.75l.368-.911A27.851,27.851,0,0,0,33,4.025V5a1,1,0,0,1-2,0V4.025a27.837,27.837,0,0,0-8.882,1.781l.378.9a1,1,0,1,1-1.845.773l-.376-.9a28.074,28.074,0,0,0-7.341,4.937l.681.681A1,1,0,1,1,12.2,13.615l-.681-.681a28.1,28.1,0,0,0-4.752,6.932l.9.393a1,1,0,1,1-.8,1.832L5.971,21.7A27.831,27.831,0,0,0,4.025,31H5a1,1,0,0,1,0,2H4.025a27.819,27.819,0,0,0,1.807,8.948l.9-.379a1,1,0,0,1,.778,1.843l-.9.378a28.085,28.085,0,0,0,4.908,7.276l.681-.681A1,1,0,1,1,13.615,51.8l-.681.681a28.1,28.1,0,0,0,7.652,5.078l.365-.9a1,1,0,1,1,1.854.75l-.368.911A27.851,27.851,0,0,0,31,59.975V59a1,1,0,0,1,2,0v.975a27.837,27.837,0,0,0,8.882-1.781l-.378-.9a1,1,0,0,1,1.845-.773l.376.9a28.074,28.074,0,0,0,7.341-4.937l-.681-.681A1,1,0,0,1,51.8,50.385l.681.681a28.1,28.1,0,0,0,4.752-6.932l-.9-.393a1,1,0,0,1,.8-1.832l.893.391A27.831,27.831,0,0,0,59.975,33H59A1,1,0,0,1,58,32ZM32,56A24,24,0,1,1,56,32,24.028,24.028,0,0,1,32,56Z"></path><path d="M36,15.5v6.612l4.691-4.691A16.868,16.868,0,0,0,36,15.5Z"></path><path d="M17.416,23.309A16.868,16.868,0,0,0,15.5,28h6.612Z"></path><path d="M32,10A22,22,0,1,0,54,32,22.025,22.025,0,0,0,32,10ZM47.6,21.182a18.869,18.869,0,0,1,3.113,7.641l0,.011c.006.035.008.066.013.1.078.477.147.956.189,1.444.052.556.082,1.1.082,1.622s-.03,1.066-.082,1.622c-.042.488-.111.967-.189,1.444-.005.034-.007.065-.013.1l0,.011A18.869,18.869,0,0,1,47.6,42.818c-.007.012-.009.026-.017.037-.155.222-.327.427-.49.641s-.323.441-.5.651c-.311.374-.641.729-.979,1.077q-.194.2-.391.391c-.348.338-.7.668-1.077.979-.21.175-.433.332-.651.5s-.419.335-.641.49c-.011.008-.025.01-.037.017a18.869,18.869,0,0,1-7.641,3.113l-.011,0c-.035.006-.066.008-.1.013-.477.078-.956.147-1.444.189-.556.052-1.1.082-1.622.082s-1.066-.03-1.622-.082c-.488-.042-.967-.111-1.444-.189-.034-.005-.065-.007-.1-.013l-.011,0A18.869,18.869,0,0,1,21.182,47.6c-.012-.007-.026-.009-.037-.017-.222-.155-.427-.327-.641-.49s-.441-.323-.651-.5c-.374-.311-.729-.641-1.077-.979q-.2-.194-.391-.391c-.338-.348-.668-.7-.979-1.077-.175-.21-.332-.433-.5-.651s-.335-.419-.49-.641c-.008-.011-.01-.025-.017-.037a18.869,18.869,0,0,1-3.113-7.641l0-.011c-.006-.035-.008-.066-.013-.1-.078-.477-.147-.956-.189-1.444C13.03,33.066,13,32.526,13,32s.03-1.066.082-1.622c.042-.488.111-.967.189-1.444,0-.034.007-.065.013-.1l0-.011A18.869,18.869,0,0,1,16.4,21.182c.007-.012.009-.026.017-.037.155-.222.327-.427.49-.641s.323-.441.5-.651c.311-.374.641-.729.979-1.077q.193-.2.391-.391c.348-.338.7-.668,1.077-.979.21-.175.433-.332.651-.5s.419-.335.641-.49c.011-.008.025-.01.037-.017a18.869,18.869,0,0,1,7.641-3.113l.011,0c.037-.007.07-.008.107-.014.466-.076.933-.145,1.41-.186a16.672,16.672,0,0,1,3.3,0c.477.041.944.11,1.41.186.037.006.07.007.107.014l.011,0A18.869,18.869,0,0,1,42.818,16.4c.012.007.026.009.037.017.222.155.427.327.641.49s.441.323.651.5c.374.311.729.641,1.077.979q.2.193.391.391c.338.348.668.7.979,1.077.175.21.332.433.5.651s.335.419.49.641C47.59,21.156,47.592,21.17,47.6,21.182Z"></path><path d="M41.893,28h6.612a16.868,16.868,0,0,0-1.921-4.691Z"></path><path d="M38.555,29.383a1,1,0,0,1,.216-1.09l6.667-6.666c-.036-.047-.069-.095-.105-.141a17.009,17.009,0,0,0-2.819-2.819c-.046-.036-.094-.069-.141-.105l-6.666,6.667A1,1,0,0,1,34,24.521V15.133c-.226-.029-.44-.045-.657-.065C32.9,15.033,32.453,15,32,15s-.9.033-1.342.068c-.217.02-.432.036-.658.065v9.388a1,1,0,0,1-1.707.708l-6.666-6.667c-.047.036-.095.069-.141.105a17.009,17.009,0,0,0-2.819,2.819c-.036.046-.069.094-.105.141l6.667,6.666A1,1,0,0,1,24.521,30H15.133c-.029.23-.046.45-.066.672-.034.439-.067.88-.067,1.328s.033.889.067,1.328c.02.222.037.442.066.672h9.388a1,1,0,0,1,.708,1.707l-6.667,6.666c.036.047.069.1.105.141a17.009,17.009,0,0,0,2.819,2.819c.046.036.094.069.141.105l6.666-6.667A1,1,0,0,1,30,39.479v9.388c.226.029.441.045.658.065.444.035.889.068,1.342.068s.9-.033,1.343-.068c.217-.02.431-.036.657-.065V39.479a1,1,0,0,1,1.707-.708l6.666,6.667c.047-.036.1-.069.141-.105a17.009,17.009,0,0,0,2.819-2.819c.036-.046.069-.094.105-.141l-6.667-6.666A1,1,0,0,1,39.479,34h9.388c.029-.23.046-.45.066-.672.034-.439.067-.88.067-1.328s-.033-.889-.067-1.328c-.02-.222-.037-.442-.066-.672H39.479A1,1,0,0,1,38.555,29.383ZM32,37a5,5,0,1,1,5-5A5.006,5.006,0,0,1,32,37Z"></path><path d="M28,15.5a16.868,16.868,0,0,0-4.691,1.921L28,22.107Z"></path></g></svg>