<svg xmlns="http://www.w3.org/2000/svg" xmlns:xlink="http://www.w3.org/1999/xlink" version="1.1" x="0px" y="0px" viewBox="0 0 78.701 80.13" enable-background="new 0 0 78.701 80.13" xml:space="preserve"><path d="M68.884,16.376c-5.817-6.467-13.87-10.956-23-12.245c-0.262,1.553-0.702,4.099-1.334,7.704  c-0.153,0.865-0.638,1.619-1.408,2.184c-0.779,0.572-1.79,0.895-2.64,0.844c-5.738-0.347-11.53,1.382-16.315,4.867  c-4.743,3.512-8.125,8.523-9.51,14.101c-0.207,0.826-0.814,1.695-1.595,2.266c-0.77,0.564-1.635,0.804-2.503,0.691  c-3.634-0.476-6.196-0.817-7.757-1.033c-0.223,1.373-0.38,2.768-0.455,4.188c-0.551,10.52,3.228,20.302,9.764,27.551  c6.528,7.257,15.866,12.034,26.385,12.583c10.519,0.551,20.304-3.229,27.552-9.763c7.256-6.53,12.032-15.865,12.581-26.386  C79.198,33.41,75.423,23.626,68.884,16.376z M65.731,24.6c0.53-0.615,1.46-0.685,2.075-0.155c0.615,0.529,0.686,1.458,0.155,2.073  c-0.529,0.616-1.461,0.688-2.072,0.157C65.275,26.144,65.204,25.216,65.731,24.6z M55.635,20.38  c0.532-0.615,1.461-0.687,2.078-0.155c0.615,0.529,0.684,1.458,0.154,2.075c-0.53,0.615-1.46,0.684-2.074,0.155  C55.176,21.924,55.107,20.995,55.635,20.38z M53.237,9.507c0.812-0.061,1.518,0.546,1.577,1.357c0.062,0.81-0.545,1.515-1.355,1.577  c-0.812,0.059-1.518-0.548-1.577-1.357C51.823,10.272,52.428,9.567,53.237,9.507z M47.444,10.265  c0.809-0.061,1.515,0.548,1.574,1.357c0.063,0.81-0.546,1.517-1.357,1.576c-0.809,0.062-1.515-0.546-1.576-1.356  C46.024,11.031,46.633,10.326,47.444,10.265z M10.647,55.711c-0.53,0.615-1.456,0.687-2.072,0.154  c-0.615-0.53-0.687-1.458-0.156-2.073c0.529-0.617,1.457-0.687,2.072-0.156C11.109,54.165,11.177,55.096,10.647,55.711z   M12.099,41.507c-0.81,0.062-1.515-0.546-1.576-1.356c-0.062-0.81,0.545-1.514,1.357-1.578c0.811-0.06,1.514,0.549,1.576,1.358  C13.516,40.74,12.909,41.445,12.099,41.507z M15.281,59.273c-0.527,0.613-1.457,0.684-2.073,0.152  c-0.613-0.528-0.686-1.458-0.156-2.071c0.529-0.615,1.462-0.687,2.074-0.156C15.745,57.728,15.812,58.658,15.281,59.273z   M14.564,46.479c-0.806,0.061-1.515-0.544-1.576-1.357c-0.06-0.81,0.551-1.514,1.359-1.577c0.81-0.058,1.515,0.547,1.576,1.356  C15.983,45.715,15.376,46.419,14.564,46.479z M20.114,61.72c-0.528,0.617-1.456,0.686-2.072,0.156  c-0.617-0.53-0.685-1.456-0.156-2.075c0.531-0.615,1.46-0.685,2.074-0.154C20.576,60.176,20.645,61.104,20.114,61.72z   M25.379,63.494c-0.533,0.615-1.457,0.685-2.075,0.152c-0.615-0.529-0.684-1.456-0.155-2.073c0.531-0.615,1.459-0.686,2.074-0.156  C25.84,61.947,25.908,62.877,25.379,63.494z M27.777,74.364c-0.811,0.061-1.516-0.546-1.576-1.355  c-0.063-0.812,0.545-1.516,1.357-1.576c0.81-0.061,1.515,0.546,1.575,1.355C29.192,73.6,28.586,74.305,27.777,74.364z   M33.572,73.607c-0.808,0.061-1.514-0.546-1.575-1.355c-0.059-0.81,0.546-1.519,1.358-1.577c0.807-0.061,1.514,0.547,1.574,1.356  C34.993,72.842,34.386,73.547,33.572,73.607z M38.722,71.923c-0.812,0.058-1.515-0.549-1.577-1.36  c-0.059-0.807,0.547-1.514,1.357-1.574c0.809-0.061,1.515,0.546,1.575,1.357C40.139,71.155,39.534,71.859,38.722,71.923z   M40.393,63.757c-6.017-0.029-11.479-2.507-15.396-6.472c-3.896-3.934-6.311-9.375-6.311-15.342v-0.122  c0.03-6.018,2.51-11.479,6.474-15.397c3.934-3.896,9.375-6.311,15.343-6.311l0.122,0c6.016,0.03,11.479,2.509,15.397,6.473  c3.896,3.934,6.309,9.373,6.309,15.342v0.123c-0.029,6.016-2.509,11.479-6.474,15.396c-3.934,3.897-9.376,6.311-15.345,6.309H40.393  z M43.698,69.455c-0.813,0.061-1.518-0.549-1.58-1.357c-0.059-0.81,0.548-1.517,1.358-1.577c0.809-0.061,1.517,0.549,1.577,1.355  C45.115,68.688,44.506,69.395,43.698,69.455z M54.437,73.87c-0.532,0.615-1.457,0.685-2.072,0.154  c-0.618-0.529-0.686-1.458-0.157-2.075c0.532-0.613,1.458-0.686,2.073-0.154C54.896,72.327,54.967,73.253,54.437,73.87z   M57.999,69.236c-0.528,0.615-1.46,0.684-2.074,0.154c-0.613-0.53-0.684-1.46-0.156-2.073c0.531-0.615,1.459-0.687,2.075-0.156  C58.458,67.69,58.53,68.619,57.999,69.236z M60.446,64.403c-0.528,0.613-1.456,0.685-2.073,0.157  c-0.616-0.534-0.685-1.463-0.156-2.078c0.531-0.615,1.46-0.684,2.073-0.154C60.906,62.858,60.979,63.786,60.446,64.403z   M62.22,59.14c-0.529,0.617-1.458,0.687-2.075,0.156c-0.613-0.529-0.686-1.458-0.154-2.075c0.53-0.615,1.459-0.684,2.075-0.156  C62.68,57.594,62.75,58.524,62.22,59.14z M63.129,24.071c-0.532,0.614-1.46,0.683-2.075,0.154c-0.616-0.529-0.685-1.458-0.154-2.074  c0.529-0.616,1.456-0.688,2.073-0.155C63.59,22.526,63.656,23.454,63.129,24.071z M66.667,40.326  c-0.808,0.06-1.515-0.548-1.574-1.358c-0.063-0.809,0.545-1.516,1.356-1.577c0.809-0.062,1.516,0.546,1.577,1.356  C68.086,39.558,67.478,40.263,66.667,40.326z M67.559,43.941c-0.06-0.809,0.548-1.516,1.356-1.575  c0.812-0.062,1.518,0.545,1.577,1.354c0.063,0.812-0.546,1.516-1.355,1.576C68.326,45.357,67.62,44.751,67.559,43.941z   M69.246,49.091c-0.06-0.812,0.546-1.519,1.356-1.576c0.81-0.061,1.515,0.544,1.578,1.355c0.06,0.809-0.548,1.516-1.356,1.576  C70.014,50.507,69.306,49.9,69.246,49.091z M71.581,56.242c-0.811,0.063-1.518-0.546-1.578-1.355  c-0.059-0.809,0.548-1.516,1.359-1.576c0.809-0.061,1.515,0.546,1.574,1.357C72.998,55.478,72.39,56.183,71.581,56.242z   M72.596,30.082c-0.529,0.616-1.458,0.685-2.073,0.155c-0.615-0.531-0.686-1.458-0.156-2.075c0.531-0.615,1.46-0.685,2.074-0.155  C73.059,28.538,73.125,29.467,72.596,30.082z"></path><path d="M60.074,41.929c0-5.355-2.162-10.225-5.657-13.755v0c-3.518-3.556-8.407-5.776-13.806-5.803l-0.109,0  c-5.354,0-10.225,2.162-13.756,5.658c-3.557,3.517-5.777,8.407-5.805,13.807v0.109c0,5.354,2.164,10.224,5.659,13.755  c3.518,3.556,8.405,5.777,13.802,5.805h0.109c5.355,0,10.228-2.163,13.759-5.658c3.556-3.517,5.775-8.407,5.804-13.806V41.929z   M40.51,25.932c1.263,0,2.282,1.022,2.282,2.284c0,1.26-1.02,2.282-2.282,2.282c-1.265,0-2.285-1.022-2.285-2.282  C38.225,26.955,39.245,25.932,40.51,25.932z M27.231,40.692c-1.26,0-2.283-1.022-2.283-2.283c0-1.263,1.023-2.285,2.283-2.285  c1.261,0,2.285,1.022,2.285,2.285C29.516,39.67,28.492,40.692,27.231,40.692z M32.225,55.348c-1.262,0-2.285-1.021-2.285-2.281  c0-1.262,1.023-2.284,2.285-2.284c1.261,0,2.283,1.022,2.283,2.284C34.508,54.326,33.486,55.348,32.225,55.348z M40.508,50.413  c-2.339,0-4.462-0.948-5.996-2.481c-1.531-1.533-2.483-3.658-2.482-5.995c-0.001-2.338,0.951-4.463,2.482-5.995  c1.534-1.533,3.657-2.483,5.996-2.482c2.339-0.001,4.464,0.95,5.995,2.482c1.534,1.532,2.484,3.657,2.484,5.995  c0,2.337-0.95,4.462-2.484,5.995C44.972,49.465,42.847,50.413,40.508,50.413z M48.791,55.348c-1.259,0-2.281-1.021-2.281-2.281  c0-1.262,1.022-2.284,2.281-2.284c1.262,0,2.284,1.022,2.284,2.284C51.075,54.326,50.053,55.348,48.791,55.348z M53.786,40.692  c-1.262,0-2.285-1.022-2.285-2.283c0-1.263,1.023-2.285,2.285-2.285c1.261,0,2.282,1.022,2.282,2.285  C56.068,39.67,55.047,40.692,53.786,40.692z"></path><path d="M12.674,33.333c1.45-5.835,4.967-11.323,10.299-15.271c5.36-3.907,11.651-5.622,17.652-5.259  c0.549,0.032,1.735-0.43,1.892-1.323c0.482-2.744,1.479-8.437,1.597-9.319c0.156-1.17-1.07-1.957-1.464-1.994  c-5.36-0.5-10.665,0.116-15.801,1.875c-1.149,0.239-2.313,0.131-3.377-1.504c-0.411-0.558-1.416-0.477-1.878-0.272  c-2.08,0.922-4.116,2.02-6.083,3.291l-0.01-0.01c-0.065,0.043-0.126,0.091-0.193,0.134c-0.028,0.019-0.058,0.04-0.086,0.059  c-0.587,0.388-1.172,0.781-1.745,1.201c-0.031,0.022-0.058,0.047-0.089,0.069c-0.029,0.023-0.063,0.042-0.092,0.065  c-0.573,0.421-1.123,0.861-1.669,1.305c-0.026,0.021-0.057,0.042-0.082,0.065c-0.061,0.049-0.125,0.095-0.186,0.144L11.366,6.6  c-1.801,1.498-3.459,3.11-4.961,4.821c-0.333,0.379-0.71,1.313-0.3,1.873c1.238,1.506,0.996,2.648,0.424,3.674  c-3.216,4.373-5.39,9.252-6.518,14.515c-0.084,0.388,0.303,1.793,1.464,1.993c0.877,0.152,6.608,0.904,9.368,1.266  C11.744,34.859,12.542,33.865,12.674,33.333z M36.355,4.669c0.965-0.708,2.313-0.499,3.021,0.463c0.706,0.961,0.5,2.312-0.465,3.019  c-0.962,0.708-2.313,0.5-3.02-0.461C35.187,6.729,35.392,5.376,36.355,4.669z M8.75,30.306c-0.963,0.708-2.316,0.5-3.022-0.461  c-0.707-0.962-0.5-2.314,0.465-3.022c0.962-0.708,2.313-0.499,3.02,0.464C9.918,28.247,9.714,29.598,8.75,30.306z"></path></svg>