<?xml version="1.0" encoding="UTF-8" standalone="no"?>
<!DOCTYPE svg PUBLIC "-//W3C//DTD SVG 1.1//EN" "http://www.w3.org/Graphics/SVG/1.1/DTD/svg11.dtd">
<!-- Generiert durch Microsoft Visio, SVG Export roll.svg acceleration -->
<svg xmlns="http://www.w3.org/2000/svg" xmlns:xlink="http://www.w3.org/1999/xlink" xmlns:ev="http://www.w3.org/2001/xml-events"
		width="8.5in" height="8.5in" viewBox="0 0 612 612" xml:space="preserve" color-interpolation-filters="sRGB" class="st3">
	<style type="text/css">
	<![CDATA[
		.st1 {fill:#000000;stroke:none;stroke-linecap:butt;stroke-width:6.12}
		.st2 {fill:#000000;stroke:none;stroke-linecap:butt;stroke-width:9.5625}
		.st3 {fill:none;fill-rule:evenodd;font-size:12px;overflow:visible;stroke-linecap:square;stroke-miterlimit:3}
	]]>
	</style>

	<g>
		<title>acceleration</title>
		<g id="group12-1" transform="translate(594,1044) rotate(180)">
			<title>Tabelle.12</title>
			<g id="shape9-2" transform="translate(205.55,-0.00497613)">
				<title>Tabelle.6</title>
				<path d="M116.51 514.24 L70.33 446.76 C65.84 440.23 56.03 435.98 45.33 435.98 L17.02 435.98 C11.05 435.98 5.56 438.23
							 2.68 441.87 C0.16 445.07 0 448.94 2.26 452.25 L47.13 517.8 C49.85 521.78 49.85 526.2 47.13 530.19 L2.26
							 595.72 C0 599.04 0.16 602.92 2.68 606.11 C5.56 609.75 11.05 612 17.02 612 L45.33 612 C56.02 612 65.84
							 607.77 70.33 601.21 L116.51 533.74 C120.76 527.54 120.76 520.43 116.51 514.24 ZM104.99 529.12 L58.83
							 596.59 C56.55 599.9 51.26 602.04 45.33 602.04 L17.02 602.04 C15.4 602.04 14.24 601.5 13.83 600.96 C13.61
							 600.67 13.66 600.53 13.79 600.34 L58.64 534.8 C63.34 527.94 63.34 520.05 58.64 513.19 L13.79 447.64
							 C13.66 447.46 13.61 447.31 13.83 447.02 C14.26 446.47 15.41 445.94 17.04 445.94 L45.35 445.94 C51.26
							 445.94 56.55 448.08 58.83 451.4 L105.01 518.87 C107.27 522.17 107.27 525.81 104.99 529.12 Z"
						class="st1"/>
			</g>
			<g id="shape10-4" transform="translate(102.781,0)">
				<title>Tabelle.7</title>
				<path d="M116.51 514.25 L70.34 446.78 C65.84 440.23 56.03 435.98 45.33 435.98 L17.02 435.98 C11.07 435.98 5.56 438.24
							 2.68 441.87 C0.16 445.07 0 448.95 2.27 452.26 L47.13 517.81 C49.85 521.79 49.85 526.2 47.13 530.19 L2.27
							 595.72 C0 599.04 0.16 602.92 2.68 606.11 C5.56 609.75 11.05 612 17.02 612 L45.33 612 C56.03 612 65.84
							 607.77 70.34 601.21 L116.51 533.74 C120.76 527.55 120.76 520.44 116.51 514.25 ZM105.01 529.13 L58.83
							 596.59 C56.55 599.91 51.26 602.05 45.33 602.05 L17.02 602.05 C15.4 602.05 14.24 601.5 13.82 600.97 C13.59
							 600.68 13.65 600.53 13.78 600.35 L58.63 534.81 C63.34 527.94 63.34 520.05 58.63 513.19 L13.79 447.64
							 C13.66 447.46 13.61 447.31 13.83 447.02 C14.26 446.47 15.4 445.94 17.04 445.94 L45.35 445.94 C51.28
							 445.94 56.57 448.08 58.84 451.4 L105.01 518.87 C107.27 522.17 107.27 525.81 105.01 529.13 Z"
						class="st1"/>
			</g>
			<g id="shape11-6" transform="translate(7.99361E-15,-0.00497613)">
				<title>Tabelle.8</title>
				<path d="M116.51 514.24 L70.33 446.76 C65.84 440.23 56.03 435.98 45.33 435.98 L17.02 435.98 C11.07 435.98 5.56 438.23
							 2.68 441.87 C0.16 445.07 0 448.94 2.26 452.25 L47.13 517.8 C49.85 521.78 49.85 526.2 47.13 530.19 L2.26
							 595.72 C0 599.04 0.16 602.92 2.68 606.11 C5.56 609.75 11.05 612 17.02 612 L45.33 612 C56.02 612 65.84
							 607.77 70.33 601.21 L116.51 533.74 C120.76 527.54 120.76 520.43 116.51 514.24 ZM104.99 529.12 L58.83
							 596.59 C56.55 599.9 51.26 602.04 45.33 602.04 L17.02 602.04 C15.4 602.04 14.24 601.5 13.83 600.96 C13.61
							 600.67 13.66 600.52 13.79 600.34 L58.64 534.8 C63.34 527.94 63.34 520.05 58.64 513.19 L13.79 447.64
							 C13.66 447.46 13.61 447.31 13.83 447.02 C14.26 446.47 15.41 445.94 17.04 445.94 L45.35 445.94 C51.26
							 445.94 56.55 448.08 58.83 451.4 L105.01 518.87 C107.25 522.17 107.25 525.81 104.99 529.12 Z"
						class="st1"/>
			</g>
		</g>
		<g id="group13-8" transform="translate(24.3874,-171)">
			<title>Tabelle.13</title>
			<g id="group14-9">
				<title>Tabelle.14</title>
				<g id="shape15-10" transform="translate(286.294,-145.793)">
					<title>Tabelle.15</title>
					<path d="M35.47 612 A127.528 127.528 -180 0 0 49.99 576.53 L0 576.53 L35.47 612 Z" class="st2"/>
				</g>
				<g id="shape16-12" transform="translate(188.819,-188.819)">
					<title>Tabelle.16</title>
					<ellipse cx="22.681" cy="589.319" rx="22.681" ry="22.681" class="st2"/>
				</g>
				<g id="shape17-14" transform="translate(145.793,-86.7169)">
					<title>Tabelle.17</title>
					<path d="M35.47 612 L35.47 562.01 L0 597.48 A127.528 127.528 -180 0 0 35.47 612 Z" class="st2"/>
				</g>
				<g id="shape18-16" transform="translate(241.741,-86.7169)">
					<title>Tabelle.18</title>
					<path d="M-0 612 A127.528 127.528 -180 0 0 35.47 597.48 L0 562.01 L0 612 Z" class="st2"/>
				</g>
				<g id="shape19-18" transform="translate(86.7547,-145.793)">
					<title>Tabelle.19</title>
					<path d="M0 576.53 A127.528 127.528 -180 0 0 14.52 612 L49.95 576.53 L0 576.53 Z" class="st2"/>
				</g>
				<g id="shape20-20">
					<title>Tabelle.20</title>
					<path d="M408.07 400.5 A7.56032 7.56032 0 0 1 415.63 392.94 L423 392.94 A210.321 210.321 -180 0 0 409.34 325.29
								 L402.53 328.16 A7.56215 7.56215 0 0 1 396.65 314.22 L403.46 311.36 A212.332 212.332 -180 0 0 366.35
								 256.35 L361.2 261.5 A7.5672 7.5672 0 0 1 350.5 250.81 L355.65 245.66 A212.445 212.445 -180 0 0 297.79
								 207.27 L295.03 214.07 A7.56032 7.56032 0 1 1 281.02 208.4 L283.8 201.51 A210.563 210.563 -180 0
								 0 219.06 189 L219.06 196.37 A7.56032 7.56032 0 1 1 203.94 196.37 L203.94 189 A210.457 210.457 -180
								 0 0 136.79 202.46 L139.65 209.27 A7.56179 7.56179 0 0 1 125.7 215.11 L122.86 208.31 A212.248 212.248
								 -180 0 0 67.35 245.63 L72.5 250.78 A7.57255 7.57255 0 1 1 61.81 261.5 L56.66 256.35 A212.445 212.445
								 -180 0 0 20.73 308.76 L27.53 311.73 A7.56032 7.56032 0 1 1 21.49 325.58 L14.71 322.63 A210.411 210.411
								 -180 0 0 0 392.94 L7.37 392.94 A7.56032 7.56032 0 0 1 7.37 408.06 L0 408.06 A210.321 210.321 -180
								 0 0 13.66 475.71 L20.47 472.84 A7.56215 7.56215 0 0 1 26.35 486.78 L19.54 489.64 A212.332 212.332
								 -180 0 0 56.65 544.65 L61.8 539.5 A7.5672 7.5672 0 1 1 72.5 550.19 L67.35 555.34 A212.445 212.445
								 -180 0 0 125.21 593.73 L127.97 586.93 A7.56032 7.56032 0 1 1 141.98 592.6 L139.2 599.49 A210.563
								 210.563 -180 0 0 203.94 612 L203.94 604.63 A7.56032 7.56032 0 1 1 219.06 604.63 L219.06 612 A210.457
								 210.457 -180 0 0 286.21 598.54 L283.35 591.73 A7.56179 7.56179 0 0 1 297.3 585.89 L300.14 592.69
								 A212.248 212.248 -180 0 0 355.65 555.37 L350.5 550.22 A7.57255 7.57255 0 0 1 361.19 539.5 L366.34
								 544.65 A212.445 212.445 -180 0 0 402.27 492.24 L395.47 489.27 A7.56032 7.56032 0 0 1 401.51 475.42
								 L408.26 478.37 A210.411 210.411 -180 0 0 423 408.06 L415.63 408.06 A7.56032 7.56032 0 0 1 408.07
								 400.5 ZM211.5 581.95 A181.448 181.448 0 1 1 392.95 400.5 A181.659 181.659 0 0 1 211.5 581.95 Z"
							class="st2"/>
				</g>
				<g id="shape21-22" transform="translate(241.741,-286.256)">
					<title>Tabelle.21</title>
					<path d="M0 562.01 L0 612 L35.47 576.53 A127.528 127.528 -180 0 0 -0 562.01 Z" class="st2"/>
				</g>
				<g id="shape22-24" transform="translate(86.7547,-241.741)">
					<title>Tabelle.22</title>
					<path d="M14.49 576.53 A127.528 127.528 -180 0 0 0 612 L49.99 612 L14.49 576.53 Z" class="st2"/>
				</g>
				<g id="shape23-26" transform="translate(67.8539,-67.869)">
					<title>Tabelle.23</title>
					<path d="M143.65 302.04 A166.327 166.327 -180 1 0 309.97 468.37 A166.516 166.516 -180 0 0 143.65 302.04 ZM261.59
								 386.58 A142.656 142.656 0 0 1 285.12 444.35 L285.12 444.43 C285.17 444.7 285.18 444.93 285.22 445.19
								 C285.81 448.8 286.33 452.42 286.65 456.11 C287.04 460.31 287.27 464.42 287.27 468.37 C287.27 472.32
								 287.04 476.43 286.65 480.63 C286.33 484.32 285.81 487.94 285.22 491.55 C285.18 491.81 285.17 492.04
								 285.12 492.3 L285.12 492.39 A142.656 142.656 0 0 1 261.59 550.16 C261.53 550.25 261.52 550.35 261.46
								 550.44 C260.29 552.11 258.99 553.66 257.75 555.28 C256.52 556.9 255.31 558.62 253.97 560.2 C251.62
								 563.03 249.13 565.72 246.57 568.35 C245.59 569.35 244.61 570.34 243.62 571.3 C240.99 573.86 238.32
								 576.35 235.47 578.7 C233.89 580.03 232.2 581.21 230.55 582.48 C228.9 583.75 227.38 585.02 225.71
								 586.19 C225.62 586.25 225.52 586.26 225.43 586.32 A142.656 142.656 0 0 1 167.66 609.85 L167.57 609.85
								 C167.31 609.9 167.08 609.91 166.82 609.95 C163.21 610.54 159.59 611.06 155.9 611.38 C151.7 611.77
								 147.59 612 143.64 612 C139.69 612 135.58 611.77 131.38 611.38 C127.69 611.06 124.06 610.54 120.46
								 609.95 C120.2 609.91 119.97 609.9 119.7 609.85 L119.62 609.85 A142.656 142.656 0 0 1 61.86 586.31
								 C61.77 586.26 61.66 586.24 61.58 586.18 C59.9 585.01 58.35 583.71 56.73 582.48 C55.11 581.24 53.4
								 580.03 51.81 578.7 C48.98 576.35 46.3 573.85 43.67 571.3 C42.66 570.32 41.68 569.33 40.71 568.34
								 C38.16 565.71 35.66 563.05 33.31 560.2 C31.99 558.61 30.8 556.92 29.53 555.27 C28.26 553.63 27 552.11
								 25.83 550.43 C25.77 550.35 25.75 550.24 25.7 550.15 A142.656 142.656 0 0 1 2.16 492.38 L2.16 492.3
								 C2.12 492.03 2.1 491.8 2.06 491.54 C1.47 487.94 0.95 484.31 0.64 480.62 C0.23 476.43 0 472.35 0
								 468.37 C0 464.39 0.23 460.31 0.62 456.11 C0.94 452.42 1.46 448.8 2.05 445.19 C2.05 444.93 2.1 444.7
								 2.15 444.43 L2.15 444.35 A142.656 142.656 0 0 1 25.71 386.58 C25.76 386.49 25.77 386.38 25.83 386.3
								 C27.01 384.62 28.31 383.07 29.54 381.46 C30.77 379.84 31.98 378.12 33.32 376.53 C35.67 373.71 38.16
								 371.02 40.72 368.39 C41.69 367.38 42.68 366.4 43.68 365.44 C46.31 362.88 48.97 360.38 51.82 358.03
								 C53.41 356.71 55.09 355.52 56.74 354.25 C58.39 352.98 59.91 351.72 61.59 350.55 C61.67 350.49 61.78
								 350.47 61.87 350.42 A142.656 142.656 0 0 1 119.63 326.89 L119.72 326.89 C120 326.83 120.25 326.82
								 120.53 326.78 C124.05 326.2 127.58 325.68 131.19 325.37 A126.046 126.046 0 0 1 156.14 325.37 C159.74
								 325.68 163.27 326.2 166.8 326.78 C167.08 326.82 167.33 326.83 167.6 326.89 L167.69 326.89 A142.656
								 142.656 0 0 1 225.43 350.43 C225.52 350.48 225.63 350.5 225.71 350.56 C227.39 351.73 228.94 353.03
								 230.56 354.26 C232.18 355.49 233.89 356.7 235.48 358.04 C238.31 360.39 240.99 362.89 243.62 365.44
								 C244.63 366.42 245.62 367.4 246.58 368.4 C249.14 371.03 251.63 373.69 253.98 376.54 C255.3 378.13
								 256.49 379.81 257.76 381.46 C259.03 383.11 260.29 384.63 261.47 386.31 C261.51 386.38 261.53 386.49
								 261.59 386.58 Z" class="st2"/>
				</g>
				<g id="shape24-28" transform="translate(286.294,-241.741)">
					<title>Tabelle.24</title>
					<path d="M0 612 L49.99 612 A127.528 127.528 -180 0 0 35.47 576.53 L0 612 Z" class="st2"/>
				</g>
				<g id="shape25-30" transform="translate(82.9745,-82.9745)">
					<title>Tabelle.25</title>
					<path d="M178.08 463.69 A7.56032 7.56032 0 0 1 179.72 455.45 L230.12 405.05 C229.85 404.7 229.6 404.33 229.33
								 403.99 A128.594 128.594 -180 0 0 208.01 382.67 C207.67 382.4 207.3 382.15 206.95 381.88 L156.55
								 432.28 A7.56032 7.56032 0 0 1 143.65 426.93 L143.65 355.95 C141.94 355.74 140.32 355.61 138.68 355.46
								 C135.33 355.2 131.95 354.95 128.53 354.95 C125.1 354.95 121.72 355.2 118.38 355.46 C116.74 355.61
								 115.11 355.74 113.4 355.95 L113.4 426.93 A7.56032 7.56032 0 0 1 100.5 432.28 L50.1 381.88 C49.75
								 382.15 49.38 382.4 49.04 382.67 A128.594 128.594 -180 0 0 27.72 403.99 C27.45 404.33 27.2 404.7
								 26.93 405.05 L77.33 455.45 A7.56032 7.56032 0 0 1 71.98 468.35 L1.01 468.35 C0.79 470.09 0.66 471.76
								 0.51 473.43 C0.25 476.75 0 480.09 0 483.47 C0 486.86 0.25 490.2 0.51 493.51 C0.66 495.19 0.79 496.86
								 1.01 498.6 L71.98 498.6 A7.56032 7.56032 0 0 1 77.33 511.5 L26.93 561.9 C27.2 562.25 27.45 562.65
								 27.72 562.96 A128.594 128.594 -180 0 0 49.04 584.28 C49.38 584.55 49.75 584.8 50.1 585.07 L100.5
								 534.67 A7.56032 7.56032 0 0 1 113.4 540.02 L113.4 610.99 C115.11 611.21 116.74 611.33 118.38 611.49
								 C121.74 611.75 125.1 612 128.53 612 C131.95 612 135.33 611.75 138.68 611.49 C140.32 611.33 141.94
								 611.21 143.65 610.99 L143.65 540.02 A7.56032 7.56032 0 0 1 156.55 534.67 L206.95 585.07 C207.3 584.8
								 207.7 584.55 208.01 584.28 A128.594 128.594 -180 0 0 229.33 562.96 C229.6 562.62 229.85 562.25 230.12
								 561.9 L179.72 511.5 A7.56032 7.56032 0 0 1 185.07 498.6 L256.05 498.6 C256.26 496.86 256.39 495.19
								 256.54 493.51 C256.8 490.2 257.05 486.86 257.05 483.47 C257.05 480.09 256.8 476.75 256.54 473.43
								 C256.39 471.76 256.26 470.09 256.05 468.35 L185.07 468.35 A7.56032 7.56032 0 0 1 178.08 463.69 ZM128.53
								 521.28 A37.8016 37.8016 0 1 1 166.33 483.47 A37.847 37.847 0 0 1 128.53 521.28 Z" class="st2"/>
				</g>
				<g id="shape26-32" transform="translate(145.793,-286.294)">
					<title>Tabelle.26</title>
					<path d="M35.47 562.05 A127.528 127.528 -180 0 0 -0 576.57 L35.47 612 L35.47 562.05 Z" class="st2"/>
				</g>
			</g>
		</g>
	</g>
</svg>
